<mxfile host="Electron" agent="Mozilla/5.0 (Windows NT 10.0; Win64; x64) AppleWebKit/537.36 (KHTML, like Gecko) draw.io/27.0.9 Chrome/134.0.6998.205 Electron/35.4.0 Safari/537.36" version="27.0.9">
  <diagram name="Page-1" id="czpRlF34za2Z9M2I5BQQ">
    <mxGraphModel dx="1432" dy="925" grid="1" gridSize="10" guides="1" tooltips="1" connect="1" arrows="1" fold="1" page="1" pageScale="1" pageWidth="827" pageHeight="1169" math="0" shadow="0">
      <root>
        <mxCell id="0" />
        <mxCell id="1" parent="0" />
        <mxCell id="wbGZUkBWrHIJ9i4xwESn-22" style="edgeStyle=orthogonalEdgeStyle;rounded=0;orthogonalLoop=1;jettySize=auto;html=1;exitX=0.5;exitY=1;exitDx=0;exitDy=0;entryX=0;entryY=0.5;entryDx=0;entryDy=0;" edge="1" parent="1" source="wbGZUkBWrHIJ9i4xwESn-1" target="wbGZUkBWrHIJ9i4xwESn-4">
          <mxGeometry relative="1" as="geometry" />
        </mxCell>
        <mxCell id="wbGZUkBWrHIJ9i4xwESn-1" value="" style="triangle;whiteSpace=wrap;html=1;rotation=-90;" vertex="1" parent="1">
          <mxGeometry x="235" y="120" width="60" height="80" as="geometry" />
        </mxCell>
        <mxCell id="wbGZUkBWrHIJ9i4xwESn-3" value="" style="triangle;whiteSpace=wrap;html=1;rotation=-90;" vertex="1" parent="1">
          <mxGeometry x="815" y="50" width="60" height="80" as="geometry" />
        </mxCell>
        <mxCell id="wbGZUkBWrHIJ9i4xwESn-23" style="edgeStyle=orthogonalEdgeStyle;rounded=0;orthogonalLoop=1;jettySize=auto;html=1;exitX=1;exitY=0.5;exitDx=0;exitDy=0;" edge="1" parent="1" source="wbGZUkBWrHIJ9i4xwESn-4" target="wbGZUkBWrHIJ9i4xwESn-12">
          <mxGeometry relative="1" as="geometry" />
        </mxCell>
        <mxCell id="wbGZUkBWrHIJ9i4xwESn-4" value="" style="ellipse;whiteSpace=wrap;html=1;aspect=fixed;" vertex="1" parent="1">
          <mxGeometry x="365" y="120" width="80" height="80" as="geometry" />
        </mxCell>
        <mxCell id="wbGZUkBWrHIJ9i4xwESn-7" value="" style="group" vertex="1" connectable="0" parent="1">
          <mxGeometry x="85" y="70" width="80" height="90" as="geometry" />
        </mxCell>
        <mxCell id="wbGZUkBWrHIJ9i4xwESn-5" value="" style="ellipse;whiteSpace=wrap;html=1;aspect=fixed;" vertex="1" parent="wbGZUkBWrHIJ9i4xwESn-7">
          <mxGeometry y="5" width="80" height="80" as="geometry" />
        </mxCell>
        <mxCell id="wbGZUkBWrHIJ9i4xwESn-6" value="&lt;font style=&quot;font-size: 60px;&quot;&gt;+&lt;/font&gt;" style="text;html=1;align=center;verticalAlign=middle;resizable=0;points=[];autosize=1;strokeColor=none;fillColor=none;" vertex="1" parent="wbGZUkBWrHIJ9i4xwESn-7">
          <mxGeometry x="10" width="60" height="90" as="geometry" />
        </mxCell>
        <mxCell id="wbGZUkBWrHIJ9i4xwESn-8" value="" style="group" vertex="1" connectable="0" parent="1">
          <mxGeometry x="85" y="170" width="80" height="90" as="geometry" />
        </mxCell>
        <mxCell id="wbGZUkBWrHIJ9i4xwESn-9" value="" style="ellipse;whiteSpace=wrap;html=1;aspect=fixed;" vertex="1" parent="wbGZUkBWrHIJ9i4xwESn-8">
          <mxGeometry y="5" width="80" height="80" as="geometry" />
        </mxCell>
        <mxCell id="wbGZUkBWrHIJ9i4xwESn-10" value="&lt;font style=&quot;font-size: 60px;&quot;&gt;+&lt;/font&gt;" style="text;html=1;align=center;verticalAlign=middle;resizable=0;points=[];autosize=1;strokeColor=none;fillColor=none;" vertex="1" parent="wbGZUkBWrHIJ9i4xwESn-8">
          <mxGeometry x="10" width="60" height="90" as="geometry" />
        </mxCell>
        <mxCell id="wbGZUkBWrHIJ9i4xwESn-25" style="edgeStyle=orthogonalEdgeStyle;rounded=0;orthogonalLoop=1;jettySize=auto;html=1;exitX=1;exitY=0.5;exitDx=0;exitDy=0;entryX=0.5;entryY=0;entryDx=0;entryDy=0;" edge="1" parent="1" source="wbGZUkBWrHIJ9i4xwESn-11" target="wbGZUkBWrHIJ9i4xwESn-3">
          <mxGeometry relative="1" as="geometry" />
        </mxCell>
        <mxCell id="wbGZUkBWrHIJ9i4xwESn-26" style="edgeStyle=orthogonalEdgeStyle;rounded=0;orthogonalLoop=1;jettySize=auto;html=1;exitX=1;exitY=0.5;exitDx=0;exitDy=0;entryX=0.5;entryY=0;entryDx=0;entryDy=0;" edge="1" parent="1" source="wbGZUkBWrHIJ9i4xwESn-11" target="wbGZUkBWrHIJ9i4xwESn-13">
          <mxGeometry relative="1" as="geometry" />
        </mxCell>
        <mxCell id="wbGZUkBWrHIJ9i4xwESn-11" value="" style="ellipse;whiteSpace=wrap;html=1;aspect=fixed;" vertex="1" parent="1">
          <mxGeometry x="655" y="120" width="80" height="80" as="geometry" />
        </mxCell>
        <mxCell id="wbGZUkBWrHIJ9i4xwESn-24" style="edgeStyle=orthogonalEdgeStyle;rounded=0;orthogonalLoop=1;jettySize=auto;html=1;exitX=0.5;exitY=1;exitDx=0;exitDy=0;entryX=0;entryY=0.5;entryDx=0;entryDy=0;" edge="1" parent="1" source="wbGZUkBWrHIJ9i4xwESn-12" target="wbGZUkBWrHIJ9i4xwESn-11">
          <mxGeometry relative="1" as="geometry" />
        </mxCell>
        <mxCell id="wbGZUkBWrHIJ9i4xwESn-12" value="" style="triangle;whiteSpace=wrap;html=1;rotation=-90;" vertex="1" parent="1">
          <mxGeometry x="525" y="120" width="60" height="80" as="geometry" />
        </mxCell>
        <mxCell id="wbGZUkBWrHIJ9i4xwESn-13" value="" style="triangle;whiteSpace=wrap;html=1;rotation=-90;" vertex="1" parent="1">
          <mxGeometry x="815" y="190" width="60" height="80" as="geometry" />
        </mxCell>
        <mxCell id="wbGZUkBWrHIJ9i4xwESn-14" value="" style="group" vertex="1" connectable="0" parent="1">
          <mxGeometry x="955" y="50" width="80" height="90" as="geometry" />
        </mxCell>
        <mxCell id="wbGZUkBWrHIJ9i4xwESn-15" value="" style="ellipse;whiteSpace=wrap;html=1;aspect=fixed;" vertex="1" parent="wbGZUkBWrHIJ9i4xwESn-14">
          <mxGeometry y="5" width="80" height="80" as="geometry" />
        </mxCell>
        <mxCell id="wbGZUkBWrHIJ9i4xwESn-16" value="&lt;font style=&quot;font-size: 60px;&quot;&gt;-&lt;/font&gt;" style="text;html=1;align=center;verticalAlign=middle;resizable=0;points=[];autosize=1;strokeColor=none;fillColor=none;" vertex="1" parent="wbGZUkBWrHIJ9i4xwESn-14">
          <mxGeometry x="20" y="-5" width="40" height="90" as="geometry" />
        </mxCell>
        <mxCell id="wbGZUkBWrHIJ9i4xwESn-17" value="" style="group" vertex="1" connectable="0" parent="1">
          <mxGeometry x="955" y="190" width="80" height="90" as="geometry" />
        </mxCell>
        <mxCell id="wbGZUkBWrHIJ9i4xwESn-18" value="" style="ellipse;whiteSpace=wrap;html=1;aspect=fixed;" vertex="1" parent="wbGZUkBWrHIJ9i4xwESn-17">
          <mxGeometry y="5" width="80" height="80" as="geometry" />
        </mxCell>
        <mxCell id="wbGZUkBWrHIJ9i4xwESn-19" value="&lt;font style=&quot;font-size: 60px;&quot;&gt;-&lt;/font&gt;" style="text;html=1;align=center;verticalAlign=middle;resizable=0;points=[];autosize=1;strokeColor=none;fillColor=none;" vertex="1" parent="wbGZUkBWrHIJ9i4xwESn-17">
          <mxGeometry x="20" y="-5" width="40" height="90" as="geometry" />
        </mxCell>
        <mxCell id="wbGZUkBWrHIJ9i4xwESn-20" style="edgeStyle=orthogonalEdgeStyle;rounded=0;orthogonalLoop=1;jettySize=auto;html=1;entryX=0.5;entryY=0;entryDx=0;entryDy=0;exitX=1;exitY=0.5;exitDx=0;exitDy=0;" edge="1" parent="1" source="wbGZUkBWrHIJ9i4xwESn-5" target="wbGZUkBWrHIJ9i4xwESn-1">
          <mxGeometry relative="1" as="geometry" />
        </mxCell>
        <mxCell id="wbGZUkBWrHIJ9i4xwESn-21" style="edgeStyle=orthogonalEdgeStyle;rounded=0;orthogonalLoop=1;jettySize=auto;html=1;exitX=1;exitY=0.5;exitDx=0;exitDy=0;entryX=0.5;entryY=0;entryDx=0;entryDy=0;" edge="1" parent="1" source="wbGZUkBWrHIJ9i4xwESn-9" target="wbGZUkBWrHIJ9i4xwESn-1">
          <mxGeometry relative="1" as="geometry">
            <mxPoint x="195" y="179.9999999999999" as="targetPoint" />
          </mxGeometry>
        </mxCell>
        <mxCell id="wbGZUkBWrHIJ9i4xwESn-27" style="edgeStyle=orthogonalEdgeStyle;rounded=0;orthogonalLoop=1;jettySize=auto;html=1;exitX=0.5;exitY=1;exitDx=0;exitDy=0;entryX=0.043;entryY=0.443;entryDx=0;entryDy=0;entryPerimeter=0;" edge="1" parent="1" source="wbGZUkBWrHIJ9i4xwESn-13" target="wbGZUkBWrHIJ9i4xwESn-18">
          <mxGeometry relative="1" as="geometry" />
        </mxCell>
        <mxCell id="wbGZUkBWrHIJ9i4xwESn-28" style="edgeStyle=orthogonalEdgeStyle;rounded=0;orthogonalLoop=1;jettySize=auto;html=1;exitX=0.5;exitY=1;exitDx=0;exitDy=0;entryX=-0.009;entryY=0.443;entryDx=0;entryDy=0;entryPerimeter=0;" edge="1" parent="1" source="wbGZUkBWrHIJ9i4xwESn-3" target="wbGZUkBWrHIJ9i4xwESn-15">
          <mxGeometry relative="1" as="geometry" />
        </mxCell>
        <mxCell id="wbGZUkBWrHIJ9i4xwESn-29" value="&lt;font style=&quot;font-size: 18px;&quot;&gt;Rock Source 1&lt;/font&gt;" style="text;html=1;align=center;verticalAlign=middle;whiteSpace=wrap;rounded=0;" vertex="1" parent="1">
          <mxGeometry x="55" y="40" width="150" height="30" as="geometry" />
        </mxCell>
        <mxCell id="wbGZUkBWrHIJ9i4xwESn-30" value="&lt;font style=&quot;font-size: 18px;&quot;&gt;Rock Source 2&lt;/font&gt;" style="text;html=1;align=center;verticalAlign=middle;whiteSpace=wrap;rounded=0;" vertex="1" parent="1">
          <mxGeometry x="55" y="260" width="150" height="30" as="geometry" />
        </mxCell>
        <mxCell id="wbGZUkBWrHIJ9i4xwESn-31" value="&lt;font style=&quot;font-size: 18px;&quot;&gt;Rock Stock 1&lt;/font&gt;" style="text;html=1;align=center;verticalAlign=middle;whiteSpace=wrap;rounded=0;" vertex="1" parent="1">
          <mxGeometry x="190" y="200" width="150" height="30" as="geometry" />
        </mxCell>
        <mxCell id="wbGZUkBWrHIJ9i4xwESn-32" value="&lt;font style=&quot;font-size: 18px;&quot;&gt;Trucking&lt;/font&gt;" style="text;html=1;align=center;verticalAlign=middle;whiteSpace=wrap;rounded=0;" vertex="1" parent="1">
          <mxGeometry x="330" y="200" width="150" height="30" as="geometry" />
        </mxCell>
        <mxCell id="wbGZUkBWrHIJ9i4xwESn-33" value="&lt;font style=&quot;font-size: 18px;&quot;&gt;Rock Stock 2&lt;/font&gt;" style="text;html=1;align=center;verticalAlign=middle;whiteSpace=wrap;rounded=0;" vertex="1" parent="1">
          <mxGeometry x="480" y="200" width="150" height="30" as="geometry" />
        </mxCell>
        <mxCell id="wbGZUkBWrHIJ9i4xwESn-34" value="&lt;font style=&quot;font-size: 18px;&quot;&gt;Conveyors&lt;/font&gt;" style="text;html=1;align=center;verticalAlign=middle;whiteSpace=wrap;rounded=0;" vertex="1" parent="1">
          <mxGeometry x="620" y="200" width="150" height="30" as="geometry" />
        </mxCell>
        <mxCell id="wbGZUkBWrHIJ9i4xwESn-35" value="&lt;font style=&quot;font-size: 18px;&quot;&gt;Processing 1&lt;/font&gt;" style="text;html=1;align=center;verticalAlign=middle;whiteSpace=wrap;rounded=0;" vertex="1" parent="1">
          <mxGeometry x="925" y="140" width="150" height="30" as="geometry" />
        </mxCell>
        <mxCell id="wbGZUkBWrHIJ9i4xwESn-36" value="&lt;font style=&quot;font-size: 18px;&quot;&gt;Processing 2&lt;/font&gt;" style="text;html=1;align=center;verticalAlign=middle;whiteSpace=wrap;rounded=0;" vertex="1" parent="1">
          <mxGeometry x="925" y="290" width="150" height="30" as="geometry" />
        </mxCell>
        <mxCell id="wbGZUkBWrHIJ9i4xwESn-37" value="&lt;font style=&quot;font-size: 18px;&quot;&gt;Process Feed 1&lt;/font&gt;" style="text;html=1;align=center;verticalAlign=middle;whiteSpace=wrap;rounded=0;" vertex="1" parent="1">
          <mxGeometry x="775" y="140" width="150" height="30" as="geometry" />
        </mxCell>
        <mxCell id="wbGZUkBWrHIJ9i4xwESn-38" value="&lt;font style=&quot;font-size: 18px;&quot;&gt;Process Feed 2&lt;/font&gt;" style="text;html=1;align=center;verticalAlign=middle;whiteSpace=wrap;rounded=0;" vertex="1" parent="1">
          <mxGeometry x="770" y="290" width="150" height="30" as="geometry" />
        </mxCell>
        <mxCell id="wbGZUkBWrHIJ9i4xwESn-85" style="edgeStyle=orthogonalEdgeStyle;rounded=0;orthogonalLoop=1;jettySize=auto;html=1;exitX=0.5;exitY=1;exitDx=0;exitDy=0;entryX=0;entryY=0.5;entryDx=0;entryDy=0;" edge="1" parent="1" source="wbGZUkBWrHIJ9i4xwESn-40" target="wbGZUkBWrHIJ9i4xwESn-77">
          <mxGeometry relative="1" as="geometry" />
        </mxCell>
        <mxCell id="wbGZUkBWrHIJ9i4xwESn-40" value="" style="triangle;whiteSpace=wrap;html=1;rotation=-90;" vertex="1" parent="1">
          <mxGeometry x="230" y="550" width="60" height="80" as="geometry" />
        </mxCell>
        <mxCell id="wbGZUkBWrHIJ9i4xwESn-41" value="" style="triangle;whiteSpace=wrap;html=1;rotation=-90;" vertex="1" parent="1">
          <mxGeometry x="1015" y="480" width="60" height="80" as="geometry" />
        </mxCell>
        <mxCell id="wbGZUkBWrHIJ9i4xwESn-44" value="" style="group" vertex="1" connectable="0" parent="1">
          <mxGeometry x="80" y="500" width="80" height="90" as="geometry" />
        </mxCell>
        <mxCell id="wbGZUkBWrHIJ9i4xwESn-45" value="" style="ellipse;whiteSpace=wrap;html=1;aspect=fixed;" vertex="1" parent="wbGZUkBWrHIJ9i4xwESn-44">
          <mxGeometry y="5" width="80" height="80" as="geometry" />
        </mxCell>
        <mxCell id="wbGZUkBWrHIJ9i4xwESn-46" value="&lt;font style=&quot;font-size: 60px;&quot;&gt;+&lt;/font&gt;" style="text;html=1;align=center;verticalAlign=middle;resizable=0;points=[];autosize=1;strokeColor=none;fillColor=none;" vertex="1" parent="wbGZUkBWrHIJ9i4xwESn-44">
          <mxGeometry x="10" width="60" height="90" as="geometry" />
        </mxCell>
        <mxCell id="wbGZUkBWrHIJ9i4xwESn-47" value="" style="group" vertex="1" connectable="0" parent="1">
          <mxGeometry x="80" y="600" width="80" height="90" as="geometry" />
        </mxCell>
        <mxCell id="wbGZUkBWrHIJ9i4xwESn-48" value="" style="ellipse;whiteSpace=wrap;html=1;aspect=fixed;" vertex="1" parent="wbGZUkBWrHIJ9i4xwESn-47">
          <mxGeometry y="5" width="80" height="80" as="geometry" />
        </mxCell>
        <mxCell id="wbGZUkBWrHIJ9i4xwESn-49" value="&lt;font style=&quot;font-size: 60px;&quot;&gt;+&lt;/font&gt;" style="text;html=1;align=center;verticalAlign=middle;resizable=0;points=[];autosize=1;strokeColor=none;fillColor=none;" vertex="1" parent="wbGZUkBWrHIJ9i4xwESn-47">
          <mxGeometry x="10" width="60" height="90" as="geometry" />
        </mxCell>
        <mxCell id="wbGZUkBWrHIJ9i4xwESn-50" style="edgeStyle=orthogonalEdgeStyle;rounded=0;orthogonalLoop=1;jettySize=auto;html=1;exitX=1;exitY=0.5;exitDx=0;exitDy=0;entryX=0.5;entryY=0;entryDx=0;entryDy=0;" edge="1" parent="1" source="wbGZUkBWrHIJ9i4xwESn-52" target="wbGZUkBWrHIJ9i4xwESn-41">
          <mxGeometry relative="1" as="geometry" />
        </mxCell>
        <mxCell id="wbGZUkBWrHIJ9i4xwESn-51" style="edgeStyle=orthogonalEdgeStyle;rounded=0;orthogonalLoop=1;jettySize=auto;html=1;exitX=1;exitY=0.5;exitDx=0;exitDy=0;entryX=0.5;entryY=0;entryDx=0;entryDy=0;" edge="1" parent="1" source="wbGZUkBWrHIJ9i4xwESn-52" target="wbGZUkBWrHIJ9i4xwESn-55">
          <mxGeometry relative="1" as="geometry" />
        </mxCell>
        <mxCell id="wbGZUkBWrHIJ9i4xwESn-52" value="" style="ellipse;whiteSpace=wrap;html=1;aspect=fixed;" vertex="1" parent="1">
          <mxGeometry x="855" y="550" width="80" height="80" as="geometry" />
        </mxCell>
        <mxCell id="wbGZUkBWrHIJ9i4xwESn-53" style="edgeStyle=orthogonalEdgeStyle;rounded=0;orthogonalLoop=1;jettySize=auto;html=1;exitX=0.5;exitY=1;exitDx=0;exitDy=0;entryX=0;entryY=0.5;entryDx=0;entryDy=0;" edge="1" parent="1" source="wbGZUkBWrHIJ9i4xwESn-54" target="wbGZUkBWrHIJ9i4xwESn-52">
          <mxGeometry relative="1" as="geometry" />
        </mxCell>
        <mxCell id="wbGZUkBWrHIJ9i4xwESn-54" value="" style="triangle;whiteSpace=wrap;html=1;rotation=-90;" vertex="1" parent="1">
          <mxGeometry x="725" y="550" width="60" height="80" as="geometry" />
        </mxCell>
        <mxCell id="wbGZUkBWrHIJ9i4xwESn-55" value="" style="triangle;whiteSpace=wrap;html=1;rotation=-90;" vertex="1" parent="1">
          <mxGeometry x="1015" y="620" width="60" height="80" as="geometry" />
        </mxCell>
        <mxCell id="wbGZUkBWrHIJ9i4xwESn-56" value="" style="group" vertex="1" connectable="0" parent="1">
          <mxGeometry x="1155" y="480" width="80" height="90" as="geometry" />
        </mxCell>
        <mxCell id="wbGZUkBWrHIJ9i4xwESn-57" value="" style="ellipse;whiteSpace=wrap;html=1;aspect=fixed;" vertex="1" parent="wbGZUkBWrHIJ9i4xwESn-56">
          <mxGeometry y="5" width="80" height="80" as="geometry" />
        </mxCell>
        <mxCell id="wbGZUkBWrHIJ9i4xwESn-58" value="&lt;font style=&quot;font-size: 60px;&quot;&gt;-&lt;/font&gt;" style="text;html=1;align=center;verticalAlign=middle;resizable=0;points=[];autosize=1;strokeColor=none;fillColor=none;" vertex="1" parent="wbGZUkBWrHIJ9i4xwESn-56">
          <mxGeometry x="20" y="-5" width="40" height="90" as="geometry" />
        </mxCell>
        <mxCell id="wbGZUkBWrHIJ9i4xwESn-59" value="" style="group" vertex="1" connectable="0" parent="1">
          <mxGeometry x="1155" y="620" width="80" height="90" as="geometry" />
        </mxCell>
        <mxCell id="wbGZUkBWrHIJ9i4xwESn-60" value="" style="ellipse;whiteSpace=wrap;html=1;aspect=fixed;" vertex="1" parent="wbGZUkBWrHIJ9i4xwESn-59">
          <mxGeometry y="5" width="80" height="80" as="geometry" />
        </mxCell>
        <mxCell id="wbGZUkBWrHIJ9i4xwESn-61" value="&lt;font style=&quot;font-size: 60px;&quot;&gt;-&lt;/font&gt;" style="text;html=1;align=center;verticalAlign=middle;resizable=0;points=[];autosize=1;strokeColor=none;fillColor=none;" vertex="1" parent="wbGZUkBWrHIJ9i4xwESn-59">
          <mxGeometry x="20" y="-5" width="40" height="90" as="geometry" />
        </mxCell>
        <mxCell id="wbGZUkBWrHIJ9i4xwESn-62" style="edgeStyle=orthogonalEdgeStyle;rounded=0;orthogonalLoop=1;jettySize=auto;html=1;entryX=0.5;entryY=0;entryDx=0;entryDy=0;exitX=1;exitY=0.5;exitDx=0;exitDy=0;" edge="1" parent="1" source="wbGZUkBWrHIJ9i4xwESn-45" target="wbGZUkBWrHIJ9i4xwESn-40">
          <mxGeometry relative="1" as="geometry" />
        </mxCell>
        <mxCell id="wbGZUkBWrHIJ9i4xwESn-63" style="edgeStyle=orthogonalEdgeStyle;rounded=0;orthogonalLoop=1;jettySize=auto;html=1;exitX=1;exitY=0.5;exitDx=0;exitDy=0;entryX=0.5;entryY=0;entryDx=0;entryDy=0;" edge="1" parent="1" source="wbGZUkBWrHIJ9i4xwESn-48" target="wbGZUkBWrHIJ9i4xwESn-40">
          <mxGeometry relative="1" as="geometry">
            <mxPoint x="190" y="609.9999999999999" as="targetPoint" />
          </mxGeometry>
        </mxCell>
        <mxCell id="wbGZUkBWrHIJ9i4xwESn-64" style="edgeStyle=orthogonalEdgeStyle;rounded=0;orthogonalLoop=1;jettySize=auto;html=1;exitX=0.5;exitY=1;exitDx=0;exitDy=0;entryX=0.043;entryY=0.443;entryDx=0;entryDy=0;entryPerimeter=0;" edge="1" parent="1" source="wbGZUkBWrHIJ9i4xwESn-55" target="wbGZUkBWrHIJ9i4xwESn-60">
          <mxGeometry relative="1" as="geometry" />
        </mxCell>
        <mxCell id="wbGZUkBWrHIJ9i4xwESn-65" style="edgeStyle=orthogonalEdgeStyle;rounded=0;orthogonalLoop=1;jettySize=auto;html=1;exitX=0.5;exitY=1;exitDx=0;exitDy=0;entryX=-0.009;entryY=0.443;entryDx=0;entryDy=0;entryPerimeter=0;" edge="1" parent="1" source="wbGZUkBWrHIJ9i4xwESn-41" target="wbGZUkBWrHIJ9i4xwESn-57">
          <mxGeometry relative="1" as="geometry" />
        </mxCell>
        <mxCell id="wbGZUkBWrHIJ9i4xwESn-66" value="&lt;font style=&quot;font-size: 18px;&quot;&gt;Rock Source 1&lt;/font&gt;" style="text;html=1;align=center;verticalAlign=middle;whiteSpace=wrap;rounded=0;" vertex="1" parent="1">
          <mxGeometry x="50" y="470" width="150" height="30" as="geometry" />
        </mxCell>
        <mxCell id="wbGZUkBWrHIJ9i4xwESn-67" value="&lt;font style=&quot;font-size: 18px;&quot;&gt;Rock Source 2&lt;/font&gt;" style="text;html=1;align=center;verticalAlign=middle;whiteSpace=wrap;rounded=0;" vertex="1" parent="1">
          <mxGeometry x="50" y="690" width="150" height="30" as="geometry" />
        </mxCell>
        <mxCell id="wbGZUkBWrHIJ9i4xwESn-68" value="&lt;font style=&quot;font-size: 18px;&quot;&gt;Rock Stock 1&lt;/font&gt;" style="text;html=1;align=center;verticalAlign=middle;whiteSpace=wrap;rounded=0;" vertex="1" parent="1">
          <mxGeometry x="185" y="630" width="150" height="30" as="geometry" />
        </mxCell>
        <mxCell id="wbGZUkBWrHIJ9i4xwESn-70" value="&lt;font style=&quot;font-size: 18px;&quot;&gt;Rock Stock 2&lt;/font&gt;" style="text;html=1;align=center;verticalAlign=middle;whiteSpace=wrap;rounded=0;" vertex="1" parent="1">
          <mxGeometry x="680" y="630" width="150" height="30" as="geometry" />
        </mxCell>
        <mxCell id="wbGZUkBWrHIJ9i4xwESn-71" value="&lt;font style=&quot;font-size: 18px;&quot;&gt;Conveyors&lt;/font&gt;" style="text;html=1;align=center;verticalAlign=middle;whiteSpace=wrap;rounded=0;" vertex="1" parent="1">
          <mxGeometry x="820" y="630" width="150" height="30" as="geometry" />
        </mxCell>
        <mxCell id="wbGZUkBWrHIJ9i4xwESn-72" value="&lt;font style=&quot;font-size: 18px;&quot;&gt;Processing 1&lt;/font&gt;" style="text;html=1;align=center;verticalAlign=middle;whiteSpace=wrap;rounded=0;" vertex="1" parent="1">
          <mxGeometry x="1125" y="570" width="150" height="30" as="geometry" />
        </mxCell>
        <mxCell id="wbGZUkBWrHIJ9i4xwESn-73" value="&lt;font style=&quot;font-size: 18px;&quot;&gt;Processing 2&lt;/font&gt;" style="text;html=1;align=center;verticalAlign=middle;whiteSpace=wrap;rounded=0;" vertex="1" parent="1">
          <mxGeometry x="1125" y="720" width="150" height="30" as="geometry" />
        </mxCell>
        <mxCell id="wbGZUkBWrHIJ9i4xwESn-74" value="&lt;font style=&quot;font-size: 18px;&quot;&gt;Process Feed 1&lt;/font&gt;" style="text;html=1;align=center;verticalAlign=middle;whiteSpace=wrap;rounded=0;" vertex="1" parent="1">
          <mxGeometry x="975" y="570" width="150" height="30" as="geometry" />
        </mxCell>
        <mxCell id="wbGZUkBWrHIJ9i4xwESn-75" value="&lt;font style=&quot;font-size: 18px;&quot;&gt;Process Feed 2&lt;/font&gt;" style="text;html=1;align=center;verticalAlign=middle;whiteSpace=wrap;rounded=0;" vertex="1" parent="1">
          <mxGeometry x="970" y="720" width="150" height="30" as="geometry" />
        </mxCell>
        <mxCell id="wbGZUkBWrHIJ9i4xwESn-77" value="" style="ellipse;whiteSpace=wrap;html=1;aspect=fixed;" vertex="1" parent="1">
          <mxGeometry x="340" y="550" width="80" height="80" as="geometry" />
        </mxCell>
        <mxCell id="wbGZUkBWrHIJ9i4xwESn-90" style="edgeStyle=orthogonalEdgeStyle;rounded=0;orthogonalLoop=1;jettySize=auto;html=1;exitX=0.5;exitY=1;exitDx=0;exitDy=0;entryX=0.5;entryY=0;entryDx=0;entryDy=0;" edge="1" parent="1" source="wbGZUkBWrHIJ9i4xwESn-78" target="wbGZUkBWrHIJ9i4xwESn-84">
          <mxGeometry relative="1" as="geometry" />
        </mxCell>
        <mxCell id="wbGZUkBWrHIJ9i4xwESn-97" style="edgeStyle=orthogonalEdgeStyle;rounded=0;orthogonalLoop=1;jettySize=auto;html=1;exitX=1;exitY=0.5;exitDx=0;exitDy=0;" edge="1" parent="1" source="wbGZUkBWrHIJ9i4xwESn-78" target="wbGZUkBWrHIJ9i4xwESn-54">
          <mxGeometry relative="1" as="geometry" />
        </mxCell>
        <mxCell id="wbGZUkBWrHIJ9i4xwESn-78" value="" style="ellipse;whiteSpace=wrap;html=1;aspect=fixed;" vertex="1" parent="1">
          <mxGeometry x="600" y="550" width="80" height="80" as="geometry" />
        </mxCell>
        <mxCell id="wbGZUkBWrHIJ9i4xwESn-88" style="edgeStyle=orthogonalEdgeStyle;rounded=0;orthogonalLoop=1;jettySize=auto;html=1;exitX=1;exitY=0.5;exitDx=0;exitDy=0;entryX=0;entryY=0.5;entryDx=0;entryDy=0;" edge="1" parent="1" source="wbGZUkBWrHIJ9i4xwESn-79" target="wbGZUkBWrHIJ9i4xwESn-82">
          <mxGeometry relative="1" as="geometry" />
        </mxCell>
        <mxCell id="wbGZUkBWrHIJ9i4xwESn-79" value="" style="ellipse;whiteSpace=wrap;html=1;aspect=fixed;" vertex="1" parent="1">
          <mxGeometry x="475" y="420" width="80" height="80" as="geometry" />
        </mxCell>
        <mxCell id="wbGZUkBWrHIJ9i4xwESn-92" style="edgeStyle=orthogonalEdgeStyle;rounded=0;orthogonalLoop=1;jettySize=auto;html=1;exitX=0;exitY=0.5;exitDx=0;exitDy=0;entryX=1;entryY=0.5;entryDx=0;entryDy=0;" edge="1" parent="1" source="wbGZUkBWrHIJ9i4xwESn-80" target="wbGZUkBWrHIJ9i4xwESn-83">
          <mxGeometry relative="1" as="geometry" />
        </mxCell>
        <mxCell id="wbGZUkBWrHIJ9i4xwESn-80" value="" style="ellipse;whiteSpace=wrap;html=1;aspect=fixed;" vertex="1" parent="1">
          <mxGeometry x="470" y="665" width="80" height="80" as="geometry" />
        </mxCell>
        <mxCell id="wbGZUkBWrHIJ9i4xwESn-87" style="edgeStyle=orthogonalEdgeStyle;rounded=0;orthogonalLoop=1;jettySize=auto;html=1;exitX=1;exitY=0.5;exitDx=0;exitDy=0;entryX=0;entryY=0.5;entryDx=0;entryDy=0;" edge="1" parent="1" source="wbGZUkBWrHIJ9i4xwESn-81" target="wbGZUkBWrHIJ9i4xwESn-79">
          <mxGeometry relative="1" as="geometry" />
        </mxCell>
        <mxCell id="wbGZUkBWrHIJ9i4xwESn-81" value="" style="shape=step;perimeter=stepPerimeter;whiteSpace=wrap;html=1;fixedSize=1;" vertex="1" parent="1">
          <mxGeometry x="350" y="420" width="80" height="80" as="geometry" />
        </mxCell>
        <mxCell id="wbGZUkBWrHIJ9i4xwESn-89" style="edgeStyle=orthogonalEdgeStyle;rounded=0;orthogonalLoop=1;jettySize=auto;html=1;exitX=0.5;exitY=1;exitDx=0;exitDy=0;entryX=0.5;entryY=0;entryDx=0;entryDy=0;" edge="1" parent="1" source="wbGZUkBWrHIJ9i4xwESn-82" target="wbGZUkBWrHIJ9i4xwESn-78">
          <mxGeometry relative="1" as="geometry" />
        </mxCell>
        <mxCell id="wbGZUkBWrHIJ9i4xwESn-82" value="" style="shape=step;perimeter=stepPerimeter;whiteSpace=wrap;html=1;fixedSize=1;" vertex="1" parent="1">
          <mxGeometry x="600" y="420" width="80" height="80" as="geometry" />
        </mxCell>
        <mxCell id="wbGZUkBWrHIJ9i4xwESn-96" style="edgeStyle=orthogonalEdgeStyle;rounded=0;orthogonalLoop=1;jettySize=auto;html=1;exitX=0.5;exitY=0;exitDx=0;exitDy=0;entryX=0.5;entryY=1;entryDx=0;entryDy=0;" edge="1" parent="1" source="wbGZUkBWrHIJ9i4xwESn-83" target="wbGZUkBWrHIJ9i4xwESn-77">
          <mxGeometry relative="1" as="geometry" />
        </mxCell>
        <mxCell id="wbGZUkBWrHIJ9i4xwESn-83" value="" style="shape=step;perimeter=stepPerimeter;whiteSpace=wrap;html=1;fixedSize=1;" vertex="1" parent="1">
          <mxGeometry x="340" y="665" width="80" height="80" as="geometry" />
        </mxCell>
        <mxCell id="wbGZUkBWrHIJ9i4xwESn-91" style="edgeStyle=orthogonalEdgeStyle;rounded=0;orthogonalLoop=1;jettySize=auto;html=1;exitX=0;exitY=0.5;exitDx=0;exitDy=0;entryX=1;entryY=0.5;entryDx=0;entryDy=0;" edge="1" parent="1" source="wbGZUkBWrHIJ9i4xwESn-84" target="wbGZUkBWrHIJ9i4xwESn-80">
          <mxGeometry relative="1" as="geometry" />
        </mxCell>
        <mxCell id="wbGZUkBWrHIJ9i4xwESn-84" value="" style="shape=step;perimeter=stepPerimeter;whiteSpace=wrap;html=1;fixedSize=1;" vertex="1" parent="1">
          <mxGeometry x="600" y="665" width="80" height="80" as="geometry" />
        </mxCell>
        <mxCell id="wbGZUkBWrHIJ9i4xwESn-86" style="edgeStyle=orthogonalEdgeStyle;rounded=0;orthogonalLoop=1;jettySize=auto;html=1;exitX=0.5;exitY=0;exitDx=0;exitDy=0;" edge="1" parent="1" source="wbGZUkBWrHIJ9i4xwESn-77">
          <mxGeometry relative="1" as="geometry">
            <mxPoint x="380" y="502" as="targetPoint" />
          </mxGeometry>
        </mxCell>
        <mxCell id="wbGZUkBWrHIJ9i4xwESn-98" value="&lt;font style=&quot;font-size: 18px;&quot;&gt;Loading&lt;/font&gt;" style="text;html=1;align=center;verticalAlign=middle;whiteSpace=wrap;rounded=0;" vertex="1" parent="1">
          <mxGeometry x="340" y="575" width="80" height="30" as="geometry" />
        </mxCell>
        <mxCell id="wbGZUkBWrHIJ9i4xwESn-99" value="&lt;font style=&quot;font-size: 18px;&quot;&gt;Dumping&lt;/font&gt;" style="text;html=1;align=center;verticalAlign=middle;whiteSpace=wrap;rounded=0;" vertex="1" parent="1">
          <mxGeometry x="600" y="575" width="80" height="30" as="geometry" />
        </mxCell>
        <mxCell id="wbGZUkBWrHIJ9i4xwESn-100" value="&lt;div&gt;&lt;font style=&quot;font-size: 18px;&quot;&gt;Loaded&lt;/font&gt;&lt;/div&gt;&lt;font style=&quot;font-size: 18px;&quot;&gt;Travel&lt;/font&gt;" style="text;html=1;align=center;verticalAlign=middle;whiteSpace=wrap;rounded=0;" vertex="1" parent="1">
          <mxGeometry x="475" y="450" width="80" height="30" as="geometry" />
        </mxCell>
        <mxCell id="wbGZUkBWrHIJ9i4xwESn-101" value="&lt;div&gt;&lt;span style=&quot;font-size: 18px;&quot;&gt;Empty Travel&lt;/span&gt;&lt;/div&gt;" style="text;html=1;align=center;verticalAlign=middle;whiteSpace=wrap;rounded=0;" vertex="1" parent="1">
          <mxGeometry x="470" y="690" width="80" height="30" as="geometry" />
        </mxCell>
        <mxCell id="wbGZUkBWrHIJ9i4xwESn-102" value="&lt;font style=&quot;font-size: 18px;&quot;&gt;Loaded Trucks&lt;/font&gt;" style="text;html=1;align=center;verticalAlign=middle;whiteSpace=wrap;rounded=0;" vertex="1" parent="1">
          <mxGeometry x="280" y="445" width="80" height="30" as="geometry" />
        </mxCell>
        <mxCell id="wbGZUkBWrHIJ9i4xwESn-104" value="&lt;font style=&quot;font-size: 18px;&quot;&gt;Ready to Dump&lt;/font&gt;" style="text;html=1;align=center;verticalAlign=middle;whiteSpace=wrap;rounded=0;" vertex="1" parent="1">
          <mxGeometry x="680" y="445" width="80" height="30" as="geometry" />
        </mxCell>
        <mxCell id="wbGZUkBWrHIJ9i4xwESn-105" value="&lt;font style=&quot;font-size: 18px;&quot;&gt;Empty Trucks&lt;/font&gt;" style="text;html=1;align=center;verticalAlign=middle;whiteSpace=wrap;rounded=0;" vertex="1" parent="1">
          <mxGeometry x="685" y="690" width="80" height="30" as="geometry" />
        </mxCell>
        <mxCell id="wbGZUkBWrHIJ9i4xwESn-106" value="&lt;font style=&quot;font-size: 18px;&quot;&gt;Ready to Load&lt;/font&gt;" style="text;html=1;align=center;verticalAlign=middle;whiteSpace=wrap;rounded=0;" vertex="1" parent="1">
          <mxGeometry x="270" y="690" width="80" height="30" as="geometry" />
        </mxCell>
      </root>
    </mxGraphModel>
  </diagram>
</mxfile>
